<svg width="30" height="29" viewBox="0 0 30 29" fill="none" xmlns="http://www.w3.org/2000/svg">
<path d="M14.3667 2.06C14.4251 1.94195 14.5154 1.84258 14.6273 1.7731C14.7392 1.70362 14.8683 1.66681 15 1.66681C15.1317 1.66681 15.2608 1.70362 15.3727 1.7731C15.4846 1.84258 15.5749 1.94195 15.6333 2.06L18.7133 8.29867C18.9162 8.70929 19.2157 9.06455 19.5862 9.33394C19.9566 9.60333 20.3868 9.77882 20.84 9.84533L27.728 10.8533C27.8585 10.8722 27.9811 10.9273 28.082 11.0123C28.1828 11.0972 28.2579 11.2087 28.2987 11.3341C28.3395 11.4596 28.3444 11.5939 28.3128 11.7219C28.2812 11.85 28.2144 11.9666 28.12 12.0587L23.1387 16.9093C22.8101 17.2295 22.5644 17.6246 22.4224 18.0608C22.2805 18.497 22.2467 18.9612 22.324 19.4133L23.5 26.2667C23.523 26.3971 23.5089 26.5314 23.4593 26.6542C23.4097 26.7771 23.3266 26.8835 23.2194 26.9613C23.1122 27.0392 22.9853 27.0853 22.8531 27.0945C22.721 27.1037 22.5889 27.0756 22.472 27.0133L16.3147 23.776C15.9089 23.563 15.4576 23.4517 14.9993 23.4517C14.5411 23.4517 14.0897 23.563 13.684 23.776L7.52799 27.0133C7.4111 27.0752 7.27919 27.1031 7.14726 27.0937C7.01533 27.0843 6.88868 27.0381 6.78172 26.9603C6.67476 26.8825 6.59177 26.7763 6.5422 26.6536C6.49263 26.531 6.47847 26.3969 6.50133 26.2667L7.67599 19.4147C7.75359 18.9623 7.71997 18.4979 7.57804 18.0614C7.43612 17.6249 7.19014 17.2295 6.86133 16.9093L1.87999 12.06C1.78479 11.968 1.71732 11.8512 1.68528 11.7228C1.65324 11.5943 1.65791 11.4595 1.69877 11.3336C1.73962 11.2077 1.81502 11.0958 1.91636 11.0106C2.01771 10.9255 2.14093 10.8705 2.27199 10.852L9.15866 9.84533C9.61234 9.77933 10.0432 9.60408 10.4141 9.33465C10.785 9.06522 11.0849 8.7097 11.288 8.29867L14.3667 2.06Z" stroke="#EDC967" stroke-width="2" stroke-linecap="round" stroke-linejoin="round"/>
</svg>
